<svg xmlns="http://www.w3.org/2000/svg" viewBox="-49 141 512 512">
  <g fill="#fff">
    <path d="M292.333 653h-102.4V482.333h-68.267v-102.4h68.267v-42.667c0-57.173 44.373-105.813 101.547-110.933h94.72v102.4h-85.333c-5.12 0-8.533 3.413-8.533 8.533v42.667h85.333v102.4h-85.333V653zM207 635.933h68.267V465.267H360.6V397h-85.333v-59.733c0-14.507 11.093-25.6 25.6-25.6h68.267V243.4h-76.8C244.547 247.667 207 288.627 207 337.267V397h-68.267v68.267H207v170.666z"/>
    <path d="M420.333 653H-6.333C-30.227 653-49 634.227-49 610.333V183.667C-49 159.773-30.227 141-6.333 141h426.667C444.227 141 463 159.773 463 183.667v426.667C463 634.227 444.227 653 420.333 653zM-6.333 158.067c-14.507 0-25.6 11.093-25.6 25.6v426.667c0 14.507 11.093 25.6 25.6 25.6h426.667c14.507 0 25.6-11.093 25.6-25.6V183.667c0-14.507-11.093-25.6-25.6-25.6H-6.333z"/>
  </g>
</svg>
