<svg width="72" height="72" viewBox="0 0 72 72" fill="none" xmlns="http://www.w3.org/2000/svg">
<path d="M46.785 12.614H25.215C18.255 12.614 12.614 18.256 12.614 25.215V46.785C12.614 53.745 18.256 59.386 25.216 59.386H46.784C53.744 59.386 59.386 53.744 59.386 46.784V25.215C59.386 18.255 53.744 12.614 46.784 12.614H46.785Z" stroke="#FFFDFD" stroke-width="2" stroke-miterlimit="10"/>
<path d="M36 47.29C42.2353 47.29 47.29 42.2353 47.29 36C47.29 29.7647 42.2353 24.71 36 24.71C29.7647 24.71 24.71 29.7647 24.71 36C24.71 42.2353 29.7647 47.29 36 47.29Z" stroke="#FFFDFD" stroke-width="2" stroke-miterlimit="10"/>
<path d="M49.709 24.71C51.045 24.71 52.128 23.627 52.128 22.291C52.128 20.955 51.045 19.872 49.709 19.872C48.373 19.872 47.29 20.955 47.29 22.291C47.29 23.627 48.373 24.71 49.709 24.71Z" fill="#FFFDFD"/>
</svg>
